# xmcd
#
# Track frame offsets:
#	150
#	19057
#	34858
#	41075
#	58793
#	74702
#	90503
#	108248
#	114302
#	131643
#	144176
#	156899
#	172971
#	184668
#	191398
#	208522
#	225074
#	235503
#	241179
#	246070
#	261762
#	275404
#	288100
#	294533
#	299480
#	314983
#	328435
#	335732
#	340842
#
# Disc length: 4667 seconds
#
# Revision: 1
# Processed by: cddbd v1.5.1PL0 Copyright (c) Steve Scherf et al.
# Submitted via: EasyCDDAExtractor 8.0.2.1
#
DISCID=b012391d
DTITLE=Nas - Inventing The Remix Pt. 2
DYEAR=2004
DGENRE=Hip-Hop
TTITLE0=Head Over Heels Remix (Featuring Allure)
TTITLE1=In Public (Featuring Kelis)
TTITLE2=The Pledge Remix (Featuring Ashanti)
TTITLE3=Street Dreams Remix (Featuring R. Kelly)
TTITLE4=You Won't See Me Tonight (Featuring Aaliyah)
TTITLE5=Love Is All We Need (Featuring Mary J. Blige)
TTITLE6=Sincerity (Featuring Mary J. Blige and Dmx)
TTITLE7=Hey Nas (Featuring Claudette Ortiz and Kelis)
TTITLE8=Make It Last Forever (Featuring Mariah Carey and Joe)
TTITLE9=Ain't A Thang (Featuring Boyz II Men)
TTITLE10=I'm Gonna Be Alright (Featuring J. Lo)
TTITLE11=If I Ruled The World (Featuring Lauren Hill)
TTITLE12=No More Remix (Featuring 3LW)
TTITLE13=Too Much For Me (Featuring Amerie)
TTITLE14=K.I.S.S.I.N.G. (Featuring R. Kelly)
TTITLE15=Finer Things (Featuring Jon B.)
TTITLE16=Did U Ever Think Remix (Featuring R. Kelly)
TTITLE17=What About Us Remix (Featuring Brandy)
TTITLE18=Hot Boys Remix (Featuring Missy Elliott and Eve)
TTITLE19=You Owe Me (Featuring Ginuwine)
TTITLE20=I Got It Remix (Featuring Jagged Edge)
TTITLE21=Popular Thug (Featuring Kelis)
TTITLE22=A Woman's Worth Remix (Featuring Alicia Keys)
TTITLE23=Ice King Remix (Featuring Res)
TTITLE24=Just In Case Remix (Featuring Jaheim)
TTITLE25=NY State Of Mind (Featuring Alicia Keys and Rakim)
TTITLE26=Dynamite (Featuring Ms. Dynamite)
TTITLE27=Afraid To Fly (Featuring Ms. Dynamite)
TTITLE28=I've got To Have It (Featuring Monica and Jermaine Dupri)
EXTD=
EXTT0=
EXTT1=
EXTT2=
EXTT3=
EXTT4=
EXTT5=
EXTT6=
EXTT7=
EXTT8=
EXTT9=
EXTT10=
EXTT11=
EXTT12=
EXTT13=
EXTT14=
EXTT15=
EXTT16=
EXTT17=
EXTT18=
EXTT19=
EXTT20=
EXTT21=
EXTT22=
EXTT23=
EXTT24=
EXTT25=
EXTT26=
EXTT27=
EXTT28=
PLAYORDER=
